<svg xmlns="http://www.w3.org/2000/svg" xmlns:xlink="http://www.w3.org/1999/xlink" id="OBJEKTS" x="0px" y="0px" viewBox="0 0 283.5 150.2" style="enable-background:new 0 0 283.5 150.2;" xml:space="preserve">
<style type="text/css">
	.st0{fill:#081C26;}
	.st1{fill:#FFFFFF;stroke:#002943;stroke-width:0.8023;stroke-miterlimit:10;}
	.st2{fill:none;stroke:#002943;stroke-width:1.6046;stroke-miterlimit:10;}
	.st3{fill:#FFFFFF;}
	.st4{fill:#009B3F;}
	.st5{fill:#C9CDD1;}
	.st6{fill:none;stroke:#002943;stroke-width:0.8023;stroke-miterlimit:10;}
	.st7{fill:#7A483A;}
	.st8{fill:#081C26;stroke:#FFFFFF;stroke-width:0.8023;stroke-miterlimit:10;}
</style>
<path class="st0" d="M173.1,142.4c0.6,0,1.2-0.1,1.7-0.1c2.4-0.3,4.7,0.1,7.1,0.2c1.2,0.1,2.3-0.1,3.4-0.2c0.9,0,1.8,0,2.5-0.6  c0.4-0.4,0.7-0.9,0.5-1.5c-0.2-0.8-1.1-1-1.9-1.2c-1.9-0.4-3.8-0.8-5.7-1.2c-0.8-0.2-2.2-0.5-2.4-1.4c-0.1-0.5,0.2-1.2,0.2-1.7  c0.1-0.6,0.1-1.2,0.1-1.8c0-1.1,0.4-2.2-1-2.2c-1.5-0.1-2.9-0.2-4.4-0.2c-0.1,0-0.3,0-0.4,0c-0.2,0.1-0.3,0.4-0.4,0.6  c-0.2,0.8-0.4,1.6-0.6,2.4c-0.3,1.3-0.6,2.5-0.8,3.8c-0.1,0.9-0.1,1.8-0.2,2.7c-0.1,0.6-0.2,1.1,0.2,1.6  C171.5,142.2,172.3,142.3,173.1,142.4z"></path>
<path class="st0" d="M184.1,147.3c0.1,0.4,0.2,0.7,0.5,0.8c0.6,0.3,1.6,0.2,2.2,0.4c1.1,0.2,2.1,0.3,3.2,0.2  c0.8-0.1,1.6-0.3,2.4-0.3c2.3-0.1,4.6,0.8,6.9,0.1c0.8-0.2,2.1-0.7,2.3-1.6c0.3-1.2-0.7-1.9-1.7-2.2c-1.2-0.3-2.5-0.5-3.8-0.5  c-0.5,0-1.1,0-1.6-0.1c-1.3-0.3-1.8-1.3-1.5-2.5c0.4-1.6,0.8-3.2,1.1-4.8c-2.6-0.4-5.3,0.1-7.9,0.5c-0.2,0-0.3,0.1-0.5,0.2  c-0.1,0.1-0.1,0.2-0.1,0.3c-0.4,1.8-0.2,3.4-0.8,5.1C184.6,143.7,183.8,146,184.1,147.3z"></path>
<path class="st1" d="M110.7,47c0.5-0.2,1-0.3,1.6-0.4c1-0.2,1.6-0.7,2.3-1.4c0.5-0.4,0.9-0.9,1.5-1.2c1.8-0.8,2.8,0.8,2.1,2.4  c-0.5,1.2-1.4,2.5-2.6,3.2c-1.4,0.7-2.8,0.7-4,1.7c-0.3,0.2-3.6,3-3.4,3.2c-0.6-0.8-1.9-2.4-1.9-3.4c0.9-0.3,1.5-0.9,2.1-1.7  c0.5-0.8,1-1.6,1.8-2.1C110.3,47.2,110.5,47.1,110.7,47z"></path>
<rect id="XMLID_696_" x="81.8" y="88.7" class="st0" width="1.4" height="31"></rect>
<path id="XMLID_695_" class="st2" d="M70.2,126.2c0-4.6,8.1-6.5,12.1-6.5c4.8,0,12.1,1.8,12.1,6.5"></path>
<line id="XMLID_694_" class="st2" x1="82.5" y1="127.4" x2="82.5" y2="119.8"></line>
<path id="XMLID_693_" class="st0" d="M96.5,127.3c0,1.1-0.9,2-2,2c-1.1,0-2-0.9-2-2c0-1.1,0.9-2,2-2  C95.6,125.3,96.5,126.2,96.5,127.3z"></path>
<path id="XMLID_692_" class="st0" d="M84.4,127.3c0,1.1-0.9,2-2,2s-2-0.9-2-2c0-1.1,0.9-2,2-2S84.4,126.2,84.4,127.3z"></path>
<path id="XMLID_691_" class="st0" d="M72.4,127.3c0,1.1-0.9,2-2,2c-1.1,0-2-0.9-2-2c0-1.1,0.9-2,2-2  C71.5,125.3,72.4,126.2,72.4,127.3z"></path>
<path id="XMLID_690_" class="st1" d="M81.1,78.3V55.5c0-3.9-3.2-7.1-7.1-7.1h-7.9c-3.9,0-7.1,3.2-7.1,7.1V81  c0,5.6,4.6,10.2,10.2,10.2H81h13.9c0.7,0,1.2-0.5,1.2-1.2l0,0c0-0.7-0.5-1.2-1.2-1.2h-3.2C85.8,88.8,81.1,84.1,81.1,78.3z"></path>
<path id="XMLID_697_" class="st1" d="M130.8,121c0.2,0.3,0.4,0.7,0.6,1c0.7,1,2.3,1.9,3.5,1.7c1.4-0.2,2.7-0.7,4.1-0.6  c0.5,0,1,0.1,1.4,0.5c1.6,1.6-2.2,3-3.3,3.3c-2.4,0.7-4.8,1.4-7.2,2.1c-0.4,0.1-0.9,0.3-1.4,0.2c-1-0.1-1.4-0.8-1.7-1.6  c-0.3-1-0.8-2.1-1.2-3.1c-0.7-1.7-1.2-3.4-1.6-5.1c-0.1-0.5-0.2-1-0.1-1.5c0.2-0.7,1-1.3,1.7-1.3c0.3,0,0.6,0.1,1,0.2  C129.1,117.5,129.8,119,130.8,121z"></path>
<path class="st0" d="M117.3,84.3c0.1-1.6-0.2-3.2-0.7-4.7c-0.9-2.3-2.7-4.4-5-5.2c-1.3-0.5-2.8-0.5-4.2-0.6  c-6.1-0.2-12.1-0.4-18.2-0.6c-5.3-0.2-11.4,4.1-11.2,9.9c0.1,3.6,2.5,7.3,6.4,7.4c0.1,0,0.2,0,0.3,0c5.8,0,11.5,0.1,17.3,0.1  c4,0,9.3,1.7,13-0.5c0.5-0.3,1-0.7,1.3-1.2c0.4-0.6,0.6-1.3,0.7-2C117.1,86.1,117.2,85.2,117.3,84.3z"></path>
<path id="XMLID_666_" class="st0" d="M93.6,82.3c5.6,3-4.7,8.2-10,8.2l-9.3,0c-5.4,0-9.5-2.7-9.7-8v-16l20.6,0.1  C85.1,66.6,87.5,79,93.6,82.3z"></path>
<path class="st0" d="M113.7,84.8c-4.3-2.9-21.8-7.1-24.1-8c-4.7-1.9-9.9-2.6-14.9-2c-4.3,0.6-8.7,1.3-9.8,6.1  c-0.9,4.3,1.8,8.6,6.1,9.5c0.1,0,0.2,0,0.3,0.1l40.1,7.9c0.1,0,0.2,0.1,0.3,0.1c0.2,0,0.4,0.1,0.6,0.1c3.1,0.4,5.7-1.5,6.4-4.6  C119.3,90.5,117.4,87.3,113.7,84.8z"></path>
<path id="XMLID_698_" class="st1" d="M108.3,122.9c0,1.2,0.2,2.3,1.3,3.3c1.6,1.5,4,1.7,5.7,3.1c0.2,0.1,0.3,0.3,0.4,0.4  c0.2,0.3,0,0.8-0.3,1c-1.5,1.4-4.9,0-6.6-0.3c-2.2-0.4-4.4-0.8-6.5-1.2c-0.6-0.1-1-0.7-0.8-1.2l1.3-6.2l0.2-0.9  c0.3-1.5,1.8-2.5,3.3-2.2c1.3,0.3,2.2,1.5,2.2,2.9C108.3,122,108.3,122.5,108.3,122.9z"></path>
<path class="st1" d="M86,43.6c-0.2-0.9-0.3-1.8-0.5-2.7c0.7,3.9,1.3,7.8,1.9,11.7c0.6,3.7,0.9,7.4,2.1,11c0.4,1.2,1,3.3,2.3,3.8  c1.7,0.6,2.9,0.4,4.6,0.4c0.7,0,1.5,0,2.2-0.2c2-0.5,3.3-2.5,4.2-4.4c1-2.1,2-3.5,3.8-4.9c1.3-1,2.6-2,3.8-3.1  c0.4-0.4,1.6-1.1,1.8-1.7c0.2-0.6-0.1-0.8-0.6-1.3c-1.5-1.5-3.1-2.8-4.4-4.4c-1.4,1.3-2.7,2.5-4.1,3.8c-1,0.9-1.9,1.8-2.9,2.7  c-0.5,0.4-3,2.1-3,2.6c-0.3-3.1-0.5-6.1-1.6-9c-0.1-0.3-0.3-0.7-0.3-1c0-0.5,0.1-0.9,0.2-1.4c0.5-2.4,0.1-5-0.9-7.2  c-1.1-2.4-2.5-3.7-4.9-4.5c-1.5-0.5-2.9-1-4.5-1.2c-0.3,0-0.6,0-0.7,0.2c0,0.1,0,0.2,0,0.3 M87.1,47.5c0.1,0,0.2,0,0.3,0L87.1,47.5z   M86.9,47.6C86.9,47.6,86.9,47.6,86.9,47.6L86.9,47.6z"></path>
<path class="st0" d="M131.5,119.4c-3.5-7.3-6.1-15-8.8-22.6c-1.3-3.7-2.7-7.4-5.1-10.5c-1.1-1.4-2.1-2.5-4-2.9  c-1.7-0.4-3.4-0.2-5,0.2c-0.9,0.2-1.7,0.7-2.6,0.9c-1.2,0.3-3.1,0-3.6,1.5c-0.2,0.7-0.1,1.4,0.1,2.1c0.3,1.2,0.6,2.3,1.1,3.4  c0.6,1.4,1.3,2.8,1.8,4.2c0.4,1.1,0.6,2.3,1.1,3.3c0.7,1.7,1.9,3.2,3.5,4.3c0.9,0.7,2,1.2,2.6,2.1c0.5,0.7,0.5,1.4,0.8,2.1  c0.7,1.9,1.6,4,3.3,5.1c0.5,0.3,1,0.5,1.3,0.9c0.2,0.3,0.4,0.7,0.5,1c0.4,1.1,0.8,2.1,1.5,3c0.6,0.8,1.5,1.4,2.1,2.2  c0.7,0.8,0.8,1.8,1.3,2.7C123.6,122.9,131.5,119.5,131.5,119.4z"></path>
<path class="st1" d="M78.5,32.8c-1,0.1-2.1,0.2-3.1,0.3c-3.3,0.3-6.8,0.8-9.4,2.9c-3.1,2.5-5,6.9-4.3,10.9c0.4,2.2,1,4.3,1.3,6.4  c0.8,7.3,1.4,14.5,1.7,21.8c3.5-0.2,7.1-0.2,10.6-0.4c4.3-0.2,9.2-0.4,13.3-2c0.5-6,2.1-12,2-18c0-3-0.1-5.9-0.1-8.9"></path>
<path class="st0" d="M116.3,103.4c0.1-0.2,0.2-0.3,0.2-0.5c0.2-0.4,0.3-0.7,0.4-1.1c1.1-4.3,2.6-9,2.2-13.7  c-0.4-4.1-0.4-9.2-4.3-11.7c-3.3-2.1-7.9-3.4-10.7,0c-0.6,0.7-1,1.6-1.3,2.5c-1.7,6.3,1.2,11.8,0.3,17.7c-0.2,1.5-0.4,3-0.1,4.5  c0.1,0.5,0.3,1,0.3,1.5c0.2,1.2-0.2,2.4-0.6,3.6c-0.3,1.3-0.6,2.5-0.6,3.8c0.1,1.3,0.5,2.6,0.5,4c0,1-0.2,1.9-0.4,2.9  c-0.3,1.2-1.5,3.7,0.1,4.3c1,0.3,2.1,0.3,3.2,0.5c0.3,0.1,2.8,0.7,4.1,1.2c0.4,0.1,0.8-0.1,0.8-0.5c0.2-1.8,1.1-3.6,1.5-5.3  c0.6-2.2,1.2-4.4,1.7-6.6c0.3-1.1,0.5-2.1,0.8-3.2C115.1,105.9,115.7,104.7,116.3,103.4z"></path>
<path class="st1" d="M86.6,24.5l-1.2-7.5L80.5,18c-3.1,0.7-5,3.8-4.3,6.9l0.4,1.8c0.2,0.7,0.5,1.4,0.9,2l-1,4.6  c-0.5,2.2,0.9,4.3,3.1,4.7c2.2,0.4,4.2-1.1,4.5-3.3l0.8-5.2C86.4,28.3,87,26.4,86.6,24.5z"></path>
<path class="st1" d="M87.9,64.4c2.3,0.5,4,1.4,6,2.5c1.7,0.9,2.1,2.7-0.2,3.1c-1.3,0.2-2.6,0.5-3.8,0.2c-1.3-0.3-1.7-1-2.5-1.9  c-0.7-0.7-1.9-0.4-3-0.8c-0.4-0.2-0.8-0.4-1-0.9c-0.1-0.4,0-0.9,0.2-1.3c0.1-0.4,0.3-0.7,0.6-1c0.6-0.5,1.5-0.5,2.2-0.3  C86.8,64.1,87.4,64.2,87.9,64.4z"></path>
<path id="XMLID_652_" class="st0" d="M85.6,18.2c-0.8,0.6-1.8,1-2.8,1.2c-0.9,0.2-1.9,0.2-2.8,0.4c-2.4,0.8-2.1,3.4-1.9,5.5  c0.1,0.7-0.6,3.1-1.6,2.7c-0.7,0-0.8-1-0.9-1.4c-0.3-0.8-0.6-1.6-0.9-2.4c-0.2-0.6-0.4-1.1-0.4-1.7c0.1-0.9,0.7-1.6,0.9-2.5  c0.1-0.7,0-1.4,0.1-2c0.1-0.9,0.7-1.7,1.5-2.2c1.1-0.7,2.5-0.5,3.6-1.1c0.6-0.3,1.1-0.9,1.7-1.3c0.9-0.6,2-0.9,3-0.7  c0.9,0.2,1.8,0.7,2.1,1.6c0.3,0.8,0.1,1.7-0.3,2.4C86.6,17.3,86.1,17.8,85.6,18.2z"></path>
<path id="XMLID_650_" class="st3" d="M79.2,24.4c0.2,0.9-0.3,1.7-1.2,1.9c-0.9,0.2-1.7-0.3-1.9-1.2c-0.2-0.9,0.3-1.7,1.2-1.9  C78.1,23,79,23.5,79.2,24.4z"></path>
<path class="st1" d="M61.6,43.5c-0.4,3.3-0.5,6.6-0.7,9.9c-0.2,3.6,0,7.3,1,10.7c0.3,1.1,0.7,2.2,1.5,3c2.7,3.1,9.3,1.8,13,1.8  c3,0,6,0,9,0c0-0.1,0.1-0.3,0.1-0.4c0.2-1.2,1-4.2,1.3-5.4c-1.9-0.2-3.8-0.3-5.7-0.5c-1.6-0.1-3.3-0.3-4.9-0.4  c-1.3-0.1-3.3,0.2-3.6-1.6c-0.1-0.6,0-1.3-0.2-1.8c-0.4-0.9-1.4-1.3-1.6-2.2c-0.2-0.7,0.1-1.5,0.2-2.2c0.1-1,0.5-1.9,0.9-2.9  c0.7-1.6,1.2-3.3,1.5-5c-0.1,0-0.2,0-0.3,0"></path>
<path id="XMLID_587_" class="st4" d="M127.1,68.7h-35l0,0c0-0.7,0.5-1.2,1.2-1.2h33.8V68.7z"></path>
<path id="XMLID_586_" class="st4" d="M133.1,67.4h-35l6.2-18.5c0.2-0.6,0.9-1.1,1.6-1.1h31.5c1.1,0,1.9,1,1.6,2L133.1,67.4z"></path>
<path id="XMLID_585_" class="st4" d="M132.5,68.7H98v-1.2l35.1-1.6V68C133.1,68.4,132.9,68.7,132.5,68.7z"></path>
<path id="XMLID_582_" class="st5" d="M119.1,58.1c-0.7,0-1.3-0.6-0.9-1.4c0.2-0.3,0.6-0.5,1-0.5c0,0,0,0,0.1,0c0,0,0,0,0.1,0  C120.5,56.5,120.4,58.2,119.1,58.1z"></path>
<path class="st1" d="M97.3,56.9c-0.1,0.3-0.3,0.5-0.4,0.7c-0.2,0.2-0.3,0.5-0.5,0.7c-0.1,0.2-0.3,0.3-0.3,0.5"></path>
<path class="st0" d="M81.1,29.3c1.1,1.3,2.5,2.3,3.4,3.7c0.1-0.9,0.2-1.8,0.3-2.7c0.1-0.5,0.2-0.9,0.3-1.4  C83.8,29.3,82.6,29.7,81.1,29.3z"></path>
<path class="st0" d="M82.8,26c0,0.5,0.4,0.8,0.9,0.9c0.4,0.1,0.9-0.1,1.2-0.4c0.3-0.3,0.5-0.8,0.4-1.3c0,0-0.1,0,0,0.1"></path>
<path class="st0" d="M77.8,24.1c-0.3-0.1-0.6,0-0.7,0.2c-0.2,0.2-0.2,0.5-0.1,0.8c0.1,0.2,0.4,0.4,0.7,0.3"></path>
<path class="st6" d="M102.7,101.1c-0.1-1.6,0-3.3,0.5-4.9c0.3-1.2,0.8-2.2,0.5-3.5c-0.3-1.2-0.5-2.2,0-3.4"></path>
<path class="st6" d="M118.1,77.9c2.8,7.1,0.4,15.1-1.6,22.5c-1.3,4.8-2.4,9.7-3.3,14.6"></path>
<path class="st0" d="M64.9,65c-0.1,0.3,0,0.6,0.1,0.9c0.1,0.1,0.2,0.3,0.3,0.3c0.3,0.2,0.7,0.1,1.1,0.1"></path>
<path class="st0" d="M82.9,49.9C82.9,49.9,82.9,49.8,82.9,49.9"></path>
<path class="st1" d="M229.9,57.6c0,0.8,0.1,1.2-0.7,1.5c-0.7,0.3-1.8,0.2-2.6,0.4c-1.7,0.3-3.4,0.8-4.9,1.8c-2.5,1.6-5.5,2-8.1,3.6  c-0.4,0.3-0.9,0.6-1.4,0.7c-0.6,0.2-1.3,0.1-1.9,0.1c-1.9-0.1-3.9,0.4-5.2,1.7c-0.5,0.5-0.8,1.2-0.5,1.7c0.2,0.3,0.5,0.5,0.8,0.6  c2.3,1,4.7,0.4,6.9-0.5c1.9-0.7,4.2-0.9,6.1-1c3.3-0.2,6.6-0.1,9.9-0.7c1.7-0.4,3.5-0.8,5.1-1.6c1.5-0.7,3.3-1.5,4-3.1  c0.1-0.3,0.2-0.6,0.3-1c0.6-2.4,1.2-4.8,1.8-7.2c0.5-1.8,0.4-3.8,0.4-5.7c0-1.6-0.3-3.2-0.8-4.7c-0.4-1.1-0.7-2.6-1.4-3.5  c-0.6-1-1.8-1.7-2.9-1.8c-2.4-0.2-4.6,1.3-4.5,3.8c0.2,3.1-0.8,6.1-0.1,9.2c0.1,0.4,0.2,0.7,0.2,1.1c0,0.4-0.1,0.7-0.2,1.1  C230,55.3,230,56.4,229.9,57.6z"></path>
<path id="XMLID_9_" class="st0" d="M222.2,112.7c1,1.4,1.6,2.8,1.4,4.7c-0.4,2.8-2.7,4.7-3.3,7.4c-0.1,0.2-0.1,0.5,0,0.8  c0.1,0.5,0.6,0.9,1.1,1c2.7,0.7,5-3.2,6.5-4.7c1.9-1.9,3.8-3.8,5.7-5.7c0.5-0.5,0.4-1.4-0.2-2l-6.3-6.5l-0.9-1  c-1.5-1.6-3.8-1.8-5.1-0.4c-1.1,1.2-1,3.3,0.1,4.9C221.5,111.7,221.8,112.2,222.2,112.7z"></path>
<rect id="XMLID_106_" x="243.2" y="86.4" class="st0" width="1.4" height="31"></rect>
<path id="XMLID_105_" class="st2" d="M256.2,123.9c0-4.6-8.1-6.5-12.1-6.5c-4.8,0-12.1,1.8-12.1,6.5"></path>
<line id="XMLID_104_" class="st2" x1="243.9" y1="125.1" x2="243.9" y2="117.5"></line>
<path id="XMLID_103_" class="st0" d="M230,125c0,1.1,0.9,2,2,2c1.1,0,2-0.9,2-2c0-1.1-0.9-2-2-2C230.8,123,230,123.9,230,125z"></path>
<path id="XMLID_102_" class="st0" d="M242,125c0,1.1,0.9,2,2,2c1.1,0,2-0.9,2-2c0-1.1-0.9-2-2-2C242.9,123,242,123.9,242,125z"></path>
<path id="XMLID_100_" class="st0" d="M254,125c0,1.1,0.9,2,2,2c1.1,0,2-0.9,2-2c0-1.1-0.9-2-2-2C254.9,123,254,123.9,254,125z"></path>
<path id="XMLID_99_" class="st1" d="M245.3,76V53.2c0-3.9,3.2-7.1,7.1-7.1h7.9c3.9,0,7.1,3.2,7.1,7.1v25.5c0,5.6-4.6,10.2-10.2,10.2  h-11.8h-13.9c-0.7,0-1.2-0.5-1.2-1.2l0,0c0-0.7,0.5-1.2,1.2-1.2h3.2C240.6,86.5,245.3,81.8,245.3,76z"></path>
<path id="XMLID_98_" class="st0" d="M220,119.9c-0.3,1.7-0.8,3.2-2.3,4.3c-2.2,1.8-5.2,1.5-7.5,3c-0.2,0.1-0.4,0.3-0.6,0.5  c-0.3,0.5-0.2,1.1,0.1,1.5c1.4,2.3,5.8,1.2,7.9,1.1c2.7-0.1,5.3-0.1,8-0.2c0.7,0,1.3-0.7,1.3-1.6l0-9.1l0-1.3c0-2.2-1.5-4-3.4-3.8  c-1.6,0.1-3,1.6-3.3,3.6C220.2,118.8,220.1,119.4,220,119.9z"></path>
<path class="st7" d="M234.9,62.8L234.9,62.8C234.9,62.8,234.9,62.8,234.9,62.8L234.9,62.8z"></path>
<polygon class="st7" points="240.3,37.3 240.1,37.8 240.1,37.8 "></polygon>
<path class="st7" d="M235,62.4c0,0.1,0,0.2-0.1,0.3L235,62.4C235,62.4,235,62.4,235,62.4z"></path>
<polygon class="st7" points="229.6,43 230.5,36 229.6,43 "></polygon>
<path class="st0" d="M230.7,36c0.6-1.9,1.7-3.6,3.5-4.5c0.5-0.3,1.1-0.5,1.7-0.6c1.5-0.5,2.9-1,4.5-1.2c0.3,0,0.6,0,0.7,0.2  c0,0.1,0,0.2,0,0.3c-0.1,0.4,0.1,0.7,0.1,1.1c-0.1,0.5-0.3,1-0.4,1.5c-0.3,1-0.5,2.1-0.4,3.2c0.2,1.6-0.7,3-0.7,4.5  c-0.1,0.3-0.8,3.9-0.8,3.9c0,0-9.1-1.5-9.1-1.5C229.9,40.6,230,38.2,230.7,36z"></path>
<path class="st0" d="M208,81.1c-0.1-0.9,0-1.9,0.3-3c0.7-2,2.6-3.4,4.7-4c2-0.6,4.2-0.5,6.3-0.6c4.3-0.2,8.5-1.5,12.8-1.3  c1.1,0,2.2,0.3,3.3,0.3c2.9-0.1,5.3-2.6,8.2-2.7c0.9-0.1,1.9,0.1,2.8,0.4c1.5,0.4,2.9,1.2,3.9,2.3c2,2.3,1.8,5.8,0.7,8.7  c-0.5,1.1-1.1,2.2-1.9,3.1c-1.2,1.2-2.8,2-4.4,2.5c-1.9,0.6-3.4,0.6-5.4,0.6c-4.3,0-8.6-0.1-13-0.1c-3.2,0-6.3,0.4-9.5,0.1  C212.9,87.1,208.5,85.1,208,81.1z"></path>
<path class="st0" d="M211.2,75.2c1.6-1.2,3.5-1.8,5.6-1c1.1,0.4,2.1,1.1,2.8,2c3.9,4.4,4.6,11.7,5.8,17.2c0.7,3.2,1.3,6.4,1.8,9.7  c0.1,0.9,1.8,9.2,1.2,9.5c-0.5,0.3-9.5,1.1-9.4,1.3c-1.7-4.5-3.7-8.9-5.1-13.5c-0.8-2.6-2.1-5-3.1-7.4c-1.2-2.9-2.3-6.1-2.9-9.2  C207.3,80.3,208.4,77.3,211.2,75.2z"></path>
<path id="XMLID_94_" class="st4" d="M235.1,81.7c-0.1,0.1-0.2,0.3-0.3,0.4c-2.7,4.3,4.6,5.4,7.2,5.4c0,0,9.3,0,9.3,0  c5.4,0,9.5-2.7,9.7-8c0,0,0-16,0-16c-3.8,0-7.7,0-11.5,0c-2.3,0-4.8-0.3-7.1,0c-1.6,0.2-1.4-0.1-2.1,1.5c-0.8,2-0.4,5.2-0.8,7.4  c-0.5,2.8-1.4,5.6-3.2,7.8C236,80.6,235.5,81.1,235.1,81.7z"></path>
<path class="st4" d="M226.8,95.1c-0.6-0.2-1.4-1.3-2-1.1c-0.6,0.1-1.1,1.3-1.4,1.8c-0.7,1.3-1.1,2.9-2.1,4.1  c-0.1,0.1-0.2,0.2-0.3,0.3c-0.3,0.1-0.6-0.1-0.9-0.3c-1.9-1.7-2.1-5.2-2.2-7.6c-0.2-4,1.9-8.1,5.3-10.3c1.1-0.7,2.4-1.2,3.6-1.8  c4-1.8,7.8-3.8,11.4-6.2c1.6-1,3.1-1.7,4.8-2.4c3-1.2,6.2-1.5,9.3-1c3.8,0.6,7.7,1.4,8.9,6.8c0.9,4.2-0.7,8.1-3.5,9.1  c-0.1,0-0.1,0-0.2,0.1l-26.4,8.8c-0.1,0-0.1,0.1-0.2,0.1c-0.1,0.1-0.3,0.1-0.4,0.1C229.2,95.7,228,95.5,226.8,95.1z"></path>
<path class="st0" d="M235.6,33.3c0.3-0.6,0.6-1.2,1.1-1.6c2.4-2.3,6.3-2.2,9.4-2.3c2-0.1,4.1,0,6.1,0.3c2.1,0.4,3.7,1.2,5.6,2.1  c1.1,0.5,2.2,1.1,3,1.9c2,1.9,2.4,4.9,2.5,7.6c0.1,2.7-2.3,30.8-2.2,30.8c-3.5-0.2-7.1-0.2-10.6-0.4c-1.8-0.1-3.6-0.2-5.4-0.3  c-1-0.1-2,0-3-0.1c-1.1-0.1-1-0.6-1.7-1.1c-0.4-0.2-0.7,0-1-0.4c-0.2-0.3-0.1-1.3-0.1-1.6c-0.1-1.2-0.1-2.4-0.2-3.5  c-0.1-1.3-0.5-2.6-0.6-3.9c-0.3-3.3-0.4-6.7-1.1-9.9c-0.6-2.9-1.7-5.7-2.3-8.7c-0.4-2-0.6-4.1-0.1-6.2  C235,35.1,235.2,34.1,235.6,33.3z"></path>
<path class="st1" d="M248.5,24.9c0.4-0.6,0.3-0.5,0.5-1.2l1.7-7.4l-10.4-2.4l-1.2,7.5c-0.4,1.9,0.2,3.8,1.6,5l0.8,5.2  c0.3,2.2,2.3,3.7,4.5,3.3c2.2-0.4,3.6-2.5,3.1-4.7L248.5,24.9z"></path>
<path class="st0" d="M241.2,27.7c1.2,0,2.5-0.6,2.9-1.9c0,0.1-0.3,0.1-0.3,0.2c-0.6,0.2-1.3,0.2-1.9,0.2c-0.4,0-0.9-0.1-1.2-0.3  c0,0-0.1,0-0.1,0c0,0-0.1,0-0.1,0.1c-0.1,0.2-0.1,0.5,0.1,0.7c0.1,0.1,0.2,0.2,0.3,0.4c0,0.2,0.1,0.4,0.1,0.6  C240.9,27.6,241.1,27.6,241.2,27.7z"></path>
<path id="XMLID_86_" class="st0" d="M239.7,15.4c0.7,0.2,1.5,0.4,2.3,0.6c1.1,0.3,2.2,0.5,3.2,0.8c2.8,0.8,2.2,3.6,2.2,6  c0,0.7,0.1,1.4,0.6,1.8c1.5,1,1.9-2.2,2.2-2.9c0.2-0.4,0.5-0.7,0.7-1.2c0.3-0.9,0-1.8,0.2-2.7c0.1-0.4,0.2-0.8,0.2-1.2  c0.1-1.7-1.4-3.3-2.9-4c-1.1-0.6-2.4-1.3-3.1-2.4c-0.1-0.2-0.2-0.4-0.4-0.5c-0.1-0.1-0.3-0.2-0.4-0.2c-0.8-0.3-1.8-0.1-2.5,0.4  c-0.2,0.2-0.4,0.4-0.7,0.5c-0.4,0.2-0.8,0-1.3,0c-0.6,0-1.3,0.1-1.8,0.5c-0.5,0.4-0.7,1.1-0.4,1.7c0.1,0.3,0.4,0.6,0.6,1  c0.4,0.8,0.2,1.4,1.1,1.7C239.6,15.4,239.7,15.4,239.7,15.4z"></path>
<path id="XMLID_84_" class="st3" d="M246.3,21.8c-0.1,0.6,0.2,1.2,0.8,1.3c0.6,0.1,1.2-0.2,1.3-0.8s-0.2-1.2-0.8-1.3  C247,20.8,246.4,21.2,246.3,21.8z"></path>
<path class="st4" d="M221.6,84.2c-1,1.5-1.6,3.3-2,5.1c-0.7,2.8-1.4,5.6-1,8.5c0.1,0.8,0.3,1.6,0.4,2.5c0.1,1.5-0.4,3-0.4,4.5  c0,1.1,0.3,2.1,0.5,3.2c0.5,2.6,0.7,5.2,0.6,7.8c0,0.9-0.1,1.7-0.1,2.6c0,0.7,0.1,1.7-0.2,2.3c1,0.2,2,0.3,3,0.4  c1.9,0.3,3.8,0.5,5.7,0.7c0.6,0,1.9,0.4,2.4,0c0.4-0.3,0.5-1.3,0.6-1.8c0.9-3.5,1.6-7.2,0.9-10.7c-0.1-0.6-0.3-1.3-0.4-1.9  c-0.1-0.8,0-1.6,0.1-2.5c0.5-3.4,1.3-6.7,1.7-10.1c0.5-3.6,0.8-7.2,1-10.7c0.5-6.3-8.2-4.3-11.1-1.6C222.6,82.7,222,83.4,221.6,84.2  z"></path>
<path class="st1" d="M251.1,36.8c-1.1,1.1-2.9,1.9-4.2,2.8c-1.1-1-2.5-1.8-4-2.2c-0.8-0.2-1.7-0.4-2.5-0.7  c-3.6-1.3-6.4-4.1-10.2-5.3c-1.9-0.6-4-1.1-5.2-2.5c-1.6-1.8-1.9-4.6-3-6.7c-0.5-0.8-1.2-1.5-2.1-0.6c-0.7,0.7-0.5,2-0.3,2.9  c0.2,1.3,0.5,2.6,0.8,3.9c0.4,1.9,0.6,2.6,2.3,3.5c1.7,0.9,3.4,2.1,4.8,3.5c0.9,0.9,1.6,2,2.4,2.9c2.9,3.4,7.2,5.2,10.4,8.3  c1.6,1.5,3.2,3.5,5.6,2.8c0.8-0.2,9.8-2.6,9.5-3.1c-1.1-1.9-1.9-3.8-2.7-5.8C252.2,39.2,251.5,38,251.1,36.8z"></path>
<path class="st8" d="M260.9,42.3c-1.3,2-3.3,3.6-5.6,4.3"></path>
<path class="st0" d="M226.7,61.3h-39.3c-0.7,0-1.3-0.5-1.4-1.1l-4.9-22.6c-0.2-0.9,0.5-1.7,1.4-1.7h39.3c0.7,0,1.3,0.5,1.4,1.1  l4.9,22.6C228.4,60.4,227.7,61.3,226.7,61.3z"></path>
<path class="st0" d="M205.3,67.7l0.8-9.3c0.1-0.9-0.6-1.6-1.5-1.6c-0.8,0-1.4,0.6-1.5,1.4l-0.8,9.6h-5.7v1h14.5v-1H205.3z"></path>
<path class="st3" d="M198.6,40.9c-0.1-1-1.6-1-1.5,0c0.1,1,0.2,2.1,0.4,3.1c0.1,1,1.6,1,1.5,0C198.8,43,198.7,42,198.6,40.9z"></path>
<path class="st3" d="M201.6,40.9c-0.1-1-1.6-1-1.5,0c0.1,1,0.2,2.1,0.4,3.1c0.1,1,1.6,1,1.5,0C201.8,43,201.7,42,201.6,40.9z"></path>
<path class="st3" d="M204.6,40.9c-0.1-1-1.6-1-1.5,0c0.1,1,0.2,2.1,0.4,3.1c0.1,1,1.6,1,1.5,0C204.9,43,204.7,42,204.6,40.9z"></path>
<path class="st3" d="M207.6,40.9c-0.1-1-1.6-1-1.5,0c0.1,1,0.2,2.1,0.4,3.1c0.1,1,1.6,1,1.5,0C207.9,43,207.8,42,207.6,40.9z"></path>
<path class="st3" d="M210.7,40.9c-0.1-1-1.6-1-1.5,0c0.1,1,0.2,2.1,0.4,3.1c0.1,1,1.6,1,1.5,0C210.9,43,210.8,42,210.7,40.9z"></path>
<path class="st0" d="M236,61.5c0.1,0.7,0.1,1.5-0.4,2c-0.3,0.3-0.7,0.4-1.1,0.4"></path>
<path class="st0" d="M243.7,46.7c0.1,0.5,0.5,0.9,1,1c0.5,0.1,1.1-0.1,1.4-0.5"></path>
<rect id="XMLID_599_" x="38.7" y="68.6" class="st0" width="244.8" height="2.7"></rect>
<polygon id="XMLID_597_" class="st0" points="280.9,132.8 279.1,132.8 263.8,69.1 265.7,69.1 "></polygon>
<polygon id="XMLID_8_" class="st0" points="264.1,132.8 262.2,132.8 247,69.1 248.8,69.1 "></polygon>
<polygon id="XMLID_3_" class="st0" points="41.9,132.8 43.8,132.8 59,69.1 57.1,69.1 "></polygon>
<polygon id="XMLID_19_" class="st0" points="58.8,132.8 60.6,132.8 75.9,69.1 74,69.1 "></polygon>
<path class="st0" d="M188.2,95.6c-0.8-3.9-7.8-3.6-11-4.1c-4.3-0.7-8.6-1.5-12.9-2.2c-1-0.2-2-0.3-2.9,0.2c-0.5,0.3-0.8,0.8-1.1,1.2  c-1.3,1.8-2.4,3.8-2.7,6c-0.3,2.1,0.2,4.4,1.7,5.7c1.4,1.2,3.4,1.6,5.4,1.8c1.2,0.2,2.3,0.4,3.5,0.6c0.7,0.1,1.3,0,1.9,0.4  c1.7,1.1,1.2,3.8,0.8,5.6c-0.4,1.7-1,3.4-0.5,5c0.1,0.4,0.3,0.8,0.4,1.3c0.1,0.5,0,1.1-0.1,1.7c-0.5,3-1.6,6.1-0.4,9  c0.1,0.3,0.3,0.7,0.4,1c0,0.3,0,0.6,0,0.9c-0.2,2-0.5,4-0.7,6c0,0,6.9,0.3,7.4,0.3c0.8,0,2.5,0.3,3.3-0.1c1.1-0.7,1.3-4,1.5-5.2  c0.3-1.7,0.4-3.5,0.7-5.2c0.6-3.1,1.9-6.1,2.5-9.2c0.3-1.6,0.2-3.2,0.5-4.7c0.3-1.3,0.6-2.6,0.8-3.9c0.5-3.2,1.1-6.4,1.6-9.5  c0.1-0.7,0.2-1.5,0.1-2.2C188.2,95.7,188.2,95.6,188.2,95.6z"></path>
<path class="st4" d="M186.8,113.5c-0.2,0.5-0.4,1-0.6,1.6c-0.5,1.3-1,2.7-1.1,4.1c-0.1,1.4,0.3,2.8,0.3,4.3c0.1,2.4-1.2,4.5-1.2,6.9  c0,0.9,0.2,1.7,0.3,2.6c0.1,0.9-0.1,1.8-0.2,2.7c-0.2,1.4-0.4,2.9-0.6,4.3c-0.2,1.2-0.5,2,0.8,2.1c3.5,0.3,6.9-0.2,10.5-0.4  c0.1,0,0.3,0,0.4-0.1c0.1-0.1,0.1-0.2,0.1-0.3c1.3-5,2.5-9.7,3.1-14.8c0.1-0.5,0.1-0.9,0.3-1.3c0.2-0.5,0.7-0.9,1.1-1.4  c0.9-1.1,0.9-2.3,1.3-3.6c0.4-1.3,0.8-2.5,1.1-3.8c0.7-3.1,1.3-6.2,2-9.3c0.5-2.6,1.2-4.9-0.2-7.3c-0.4-0.8-1.1-1.4-1.9-2  c-6.2-5-14-7.9-22-8.2c-3-0.1-6.7-0.3-7.8-3c-0.4-1-0.3-2.2-0.5-3.3c-0.5-3.2-5.5-4-8.1-3.1c-3.5,1.1-4.6,5.5-5,9.2  c-0.3,3-0.5,6.1,0.3,9c1.3,4.3,4.9,7.7,9,9.5c3.3,1.4,6.8,1.9,10.3,2.2c2.7,0.2,5.4-0.3,8-0.7c1.9-0.2,1.6,0.3,1,1.9  C187.5,111.8,187.1,112.7,186.8,113.5z"></path>
<path class="st1" d="M163.1,33.2c0.1,0.5,0.2,0.9,0.3,1.4c0.2,0.9,0.3,2-0.4,2.7c-0.4,0.4-0.9,0.6-1.3,1c-0.5,0.6-0.6,1.5-0.5,2.3  c0.1,1,0.2,1.8,0.2,2.7c0.1,1,0.5,1.9,0.4,3c-0.1,1.9-1.5,3.2-3.4,3.1c-1.1-0.1-2.4-0.2-3-1.1c-0.3-0.4-0.5-1-0.6-1.5  c-0.9-4-1.8-8.1-0.8-12.1c0.4-1.5,0.9-3.2,1.7-4.4c0.6-0.9,1.3-2.1,2.2-2.8c0.8-0.6,2-0.9,2.9-0.2c0.6,0.4,0.8,1.1,1,1.8  C162.4,30.3,162.8,31.7,163.1,33.2z"></path>
<path class="st1" d="M173.2,49.7c0.2-1.5,1.1-2.8,2.4-3.6c1.4-0.8,2.8-1.6,4.4-2.2c0.2-0.1,0.4-0.1,0.6-0.2c4-1.4,8.2-2.3,12.2-3.9  c4.4-1.8,8.6-3.9,12.8-5.9c2.9-1.3,5.6-2.7,8.2-4.7c2.1-1.6,1.5-4.9,2.5-7.1c0.4-1,1.3-2,2.1-0.7c0.7,1.2,0.5,2.8,0.7,4.1  c0.2,1.3,0.4,2.7-0.2,3.9c-0.4,0.9-1.2,1.6-1.9,2.2c-0.7,0.6-1.4,1.3-2.1,1.9c-0.8,0.7-1.6,1.5-2.5,2.2c-2.7,2-5.3,4.2-7.8,6.5  c-2.5,2.3-4.7,4.6-7.5,6.4c-2.7,1.8-5.9,3.3-9,4.1c-0.1,0-0.1,0-0.2,0c-3.1,0.9-6,2.1-9.3,1.8C175.8,54.4,172.7,52.7,173.2,49.7z"></path>
<path class="st0" d="M171.3,82c0,0.1-8.6,0.5-9.4,0.6c-1.5,0.1-3.5,0.6-5.1,0.3c-1-0.2-1.4-1.2-2.5-1c-0.7,0.1-1.5,0.4-2-0.1  c-0.3-0.3-0.4-0.8-0.4-1.3c-0.2-3.2-0.4-6.5-0.5-9.7c-0.1-2.7-3.4-3.4-5.3-4.6c-1.3-0.8-2.6-1.7-3.9-2.5c2.5-5.3,5.9-9.9,9.9-14.1  c4.2-4.4,7.2-4.8,13.4-4.8c5,0,9.9-0.7,14.8-2c1.2,4.1,2.4,8.2,3.5,12.3c-2.8,1.5-6.3,2.6-9.3,3.7c-0.9,0.3-1.9,0.7-2.4,1.6  c-0.4,0.7-0.4,1.5-0.4,2.2C171.4,69.1,171.4,75.5,171.3,82z"></path>
<path class="st2" d="M162.5,89.9c2.3,0.3,4.6,0.6,6.9,0.8c4.1,0.5,8.6,1.2,11.5,4.2c1.8,1.9,2.7,4.5,3,7.1c0.3,2.6,0,5.2-0.3,7.8"></path>
<rect id="XMLID_24_" x="156.4" y="108.8" class="st0" width="1.4" height="31"></rect>
<path id="XMLID_23_" class="st2" d="M144.8,146.3c0-4.6,8.1-6.5,12.1-6.5c4.8,0,12.1,1.8,12.1,6.5"></path>
<line id="XMLID_15_" class="st2" x1="157.1" y1="147.5" x2="157.1" y2="139.9"></line>
<path id="XMLID_14_" class="st0" d="M171.1,147.4c0,1.1-0.9,2-2,2c-1.1,0-2-0.9-2-2c0-1.1,0.9-2,2-2  C170.2,145.4,171.1,146.3,171.1,147.4z"></path>
<path id="XMLID_12_" class="st0" d="M159,147.4c0,1.1-0.9,2-2,2c-1.1,0-2-0.9-2-2c0-1.1,0.9-2,2-2C158.1,145.4,159,146.3,159,147.4z  "></path>
<path id="XMLID_11_" class="st0" d="M147,147.4c0,1.1-0.9,2-2,2c-1.1,0-2-0.9-2-2c0-1.1,0.9-2,2-2C146.1,145.4,147,146.3,147,147.4z  "></path>
<path id="XMLID_10_" class="st1" d="M166.6,97.1V70.5c0-4.6-4.2-8.3-9.4-8.3h-10.4c-5.2,0-9.4,3.7-9.4,8.3v29.7  c0,6.6,6.1,11.9,13.5,11.9h15.5h18.3c0.9,0,1.6-0.6,1.6-1.4v0c0-0.8-0.7-1.4-1.6-1.4h-4.2C172.8,109.4,166.6,103.9,166.6,97.1z"></path>
<path class="st1" d="M148.6,25.7c-1.4,0.1-2.8,0.1-4.1,0.6c-2.6,0.9-3.8,2.8-5.1,5c-1.3,2.2-3.5,3.5-5.2,5.3  c-3.1,3.4-3.5,9-0.9,12.8c0.8,1.3,1.9,2.4,3.2,3.3c6.7,5.1,17.8,1.5,21.7-5.7c2.1-3.8,1.3-8.4,0.4-12.7c-0.5-2.3-0.2-4.2,2.2-5.4  c0.6-0.3,1.3-0.5,1.9-0.9c1.4-0.9,1.9-2.9,1.3-4.5c-0.6-1.6-2.3-2.6-3.9-2.8c-0.7-0.1-1.5,0-2.2,0.3c-1.6,0.7-2.5,2.4-3.9,3.4  C152.4,25.5,150.5,25.6,148.6,25.7z"></path>
<path class="st0" d="M193.1,47.6c-0.1,0-0.1,0.2,0,0.2c0.3,0.5,0.9,0.7,1.4,0.6c0.5,0,1-0.3,1.5-0.7"></path>
<path class="st1" d="M31.6,139c2-0.2,4.1,0,6.2,0.6c0-3.5-0.1-7-0.3-10.5c-0.1-2.3-1-4.5-3.7-4.9c-1.6-0.3-2.9,0.3-3.4,1.6  C29.3,129.1,30.8,135.3,31.6,139z"></path>
<path class="st0" d="M23.5,111.3c0.2,2.2-0.1,4.8-0.2,7c-0.1,2.6,1.1,4.6,1.4,7.1c0.3,2.3,0.3,4.8,0.2,7.2c0,0.1,0.1,0.2,0.2,0.2  h15.1c0.1,0,0.2-0.1,0.2-0.2c0.2-1.6,0.3-2.9,0.3-2.9c0.2-2.2,0.3-4-0.3-6.2c-0.3-0.9-0.5-1.8-0.6-2.8c-0.3-1.5-0.5-3-0.6-4.4  c-0.2-2.2-0.2-4.5-0.4-6.7c-0.2-2.2-0.6-4.3-0.9-6.5c-1.1-6.5-2.3-13-3.8-19.5c-0.8-3.2-1.7-6.4-2.7-9.6c-1.3-3.7-2.8-7.4-4.8-10.8  c-1.2-2.1-2.6-4.3-5.1-5.1c-1.9-0.6-4-0.9-5.9-0.1c-2.5,1.1-4.5,3.2-6.6,4.9c-0.3,1.4-0.6,2.8-0.9,4.2c-0.7,3.3,0.2,7.2,1.8,10.1  c0.6,1.1,1.3,2.1,1.8,3.3c0.7,1.7,0.9,3.6,1.4,5.4c0.5,1.8,1.5,3.4,2.4,5C18.7,97,22.7,104.3,23.5,111.3z"></path>
<path class="st1" d="M45.5,59.9c0.3,1.5,0.1,3.3,1,4.6c0.9,1.3,3.8,1.7,5.2,2.2c0.3,0.1,0.6,0.2,0.9,0.5c0.5,0.6,0.1,1.7-0.7,2  c-0.8,0.3-1.6,0.2-2.4,0c-1.9-0.4-3.8-0.8-5.7-1.3c-0.4-0.1-0.8-0.2-1.1-0.4c-1-0.5-1.3-1.8-1.4-2.8c-1.1-7.8-8.4-13-10.9-20.3  c-0.6-1.9-1-3.8-1.4-5.8c-0.6-2.8-1.1-5.7-1.7-8.5c-0.4-2-1.6-3.8-0.4-5.9c0.9-1.6,3-2.2,4.7-1.6c2.7,1,3.7,4,4.5,6.5  c1.2,3.4,2.1,6.5,1.9,10.2c-0.1,1-0.2,2,0.2,2.9c0.4,1,1.2,1.8,1.9,2.6c2.4,2.8,2.7,6.6,3.6,10C44.2,56.5,45.1,58.1,45.5,59.9  C45.5,59.8,45.5,59.8,45.5,59.9z"></path>
<path class="st1" d="M4.2,142.4c2-0.2,4.1,0,6,0.5c0.9-3.3,1.7-6.7,2.5-10.1c0.5-2.2,0.2-4.3-2.4-4.7c-1.6-0.3-2.9,0.3-3.8,1.6  C4.5,132.8,4.3,138.8,4.2,142.4z"></path>
<path class="st0" d="M20.4,146.6c-1.4,0.9-3.2,1-4.8,1c-0.2,0-0.3,0-0.5,0c-2.6,0-5.2-0.1-7.7-0.3c-1.1-0.1-2.2-0.2-3.1-0.8  c-1-0.7-0.9-2-0.6-3.1c0.2-1,0.3-1.9,0.4-2.9c1.2,0.4,2.6,0.8,3.8,0.6c0.7-0.1,1.4-0.2,2-0.5c0.3-0.1,0.6-0.3,0.9-0.5  c0.2-0.1,0.6-0.6,0.8-0.6c0.2,0,0.3,0.5,0.4,0.6c0.2,0.3,0.5,0.6,0.7,0.8c0.5,0.5,1.1,0.9,1.8,1.1c0.6,0.2,1.2,0.3,1.9,0.4  c0.9,0.2,1.8,0.4,2.7,0.6c0.6,0.1,1.1,0.3,1.6,0.6c0.5,0.3,0.9,0.8,0.9,1.4c0,0.6-0.4,1.2-0.9,1.6C20.5,146.5,20.5,146.5,20.4,146.6  z"></path>
<path class="st0" d="M47.1,142.7c-0.2,0.7-1,1.3-1.8,1.5c-3.5,1-7.2,0-10.8,0.3c-0.9,0.1-1.8,0.2-2.7,0c-2-0.5-1.9-2.9-1.5-4.5  c0.2-0.7,0.6-1.5,0.4-2.2c1.6,0.3,3.2,0.4,4.8,0.1c0.6-0.1,1.2-0.2,1.7-0.6c0.2-0.2,0.5-0.4,0.7-0.3c0.2,0.1,0.3,0.2,0.4,0.4  c0.8,1.2,1.8,1.7,3,2.3c0.5,0.3,0.9,0.5,1.5,0.7c0.7,0.2,1.4,0.3,2.2,0.5c0.8,0.2,1.8,0.5,2,1.3C47.1,142.3,47.1,142.5,47.1,142.7z"></path>
<path class="st4" d="M22.3,89.5c-0.4-3.7-0.5-7.4-0.7-11.1c-0.2-3.6-0.6-7-1.2-10.6c-0.2-1.3,0-2.4-0.5-3.7  c-0.5-1.6-1.2-3.3-2.1-4.7c-1.3-2.2-3.2-4.1-5.6-4.9c-1.6-0.6-3.4-0.6-4.9,0.3c-1.5,0.9-2.3,2.3-3,3.8c-0.4,0.9-0.9,1.8-1.3,2.7  c-1,1.9-1.9,3.9-2.5,6c-0.6,2.1-0.8,4.3-0.2,6.4c0.4,1.3,1.1,2.1,1.8,3.2c0.8,1.4,1.2,3.1,1.3,4.7c0,1.2-0.1,2.3-0.2,3.5  c-0.1,2.6,0.4,5.3,1.1,7.8c0.3,1,0.6,2,0.6,3.1c0,0.9-0.1,1.7-0.1,2.6c-0.1,2.3,0.3,4.6,0.4,6.9c0.1,2.4-0.4,4.3-1.2,6.5  c-0.6,1.4-0.9,2.9-0.9,4.4c0,2.3,0.4,4.6-0.3,6.9c-0.2,0.7-0.5,1.3-0.8,2c-1.1,2.8-1.6,5.8-2.1,8.9c0,0.2,0.1,0.3,0.2,0.3  c1.1,0.1,4.6,0.8,5,0.9c3.3,0.4,6.3-0.7,9.5,0c0.1,0,0.3,0,0.3-0.2c2.5-6.8,4.3-13.7,5.7-20.8c0.4-2,0.1-4,0.2-6  c0-0.7,0.3-1.9,0.5-2.6c1.2-4,2.1-7.8,1.4-12C22.6,92.2,22.4,90.8,22.3,89.5z"></path>
<path class="st0" d="M27.3,21.1c-1.5-1.3-3.4-2.2-5.3-2.6c-0.7-0.1-1.4-0.2-2.1,0c-0.5,0.1-0.9,0.4-1.3,0.7c-3,1.9-5.5,4.4-7,7.6  c-1.2,2.6-1.8,5.5-2.4,8.3c-0.3,1.7-3.3,22-4.3,21.7c1.2,0.3,2.4,0.6,3.5,1c1.7,0.6,3.3,1.3,5,2c3.3,1.4,6.4,2.9,9.9,3.7  c0.4-0.3,0.8-0.8,1.1-1.4c0.8-1.8,1.4-3.8,1.7-5.7c1.1-7,1.6-14.6,3.4-21.5c0.8-3.1,1.4-6.6,0.5-9.8C29.5,23.6,28.5,22.2,27.3,21.1z  "></path>
<path class="st1" d="M25,59.5c0.9,0.4,1.8,0.8,2.7,1.2c4.1,1.9,8.1,4.3,11.7,7.1c-1.1,1-2,2.2-2.1,3.7c-0.1,1.4,1,3,2.5,3  c0.8-0.9,1-2.3,1.6-3.4c0.8-1.4,3.2-1.4,3.7-2.5c0.6-1.1-0.7-2.7-1.3-3.5c-1.8-2.3-4.6-3.7-6.4-5.9c-0.6-0.8-1.1-1.8-1.7-2.6  c-0.9-1.4-2.2-2.6-3.6-3.5c-2.8-1.8-3.8-4.2-5.1-7.1c-0.4-0.9-0.8-1.8-1.1-2.7c-0.3-1.2-0.3-2.5-0.5-3.8c-0.3-1.8-1-3.5-1.7-5.1  c-0.7-1.5-1.5-3-2.7-4.1c-1.2-1.1-2.9-1.8-4.5-1.6c-2,0.3-3.5,2.1-4.1,4.1c-0.6,2-0.4,4-0.2,6.1c0.2,1.9,0.5,3.9,1.4,5.7  c0.9,1.7,2.2,3.1,3.1,4.7c0.9,1.6,1.4,3.2,2.1,4.9C20.1,57,22.4,58.4,25,59.5z"></path>
<path class="st0" d="M23.8,20c-0.4,0.5-0.7,1.2-0.9,1.9c-1,3.5,0.4,7.8,1.9,11c0.5,1.2,0.8,3.1,2.1,3.8c0.9,0.4,1.5-0.2,2.3-0.6  c0.9-0.4,1.8-0.8,2.7-1.3c2-1,3.9-2.1,5.8-3.3c-1-4.8-3.3-9.7-7.6-12.1c-1.4-0.8-3-1.2-4.5-0.7C24.8,19,24.3,19.4,23.8,20z"></path>
<path class="st1" d="M18.6,16.6c0.4-1.3,0.7-2.5,0.8-3.9c0.1-1.6,0.1-3.2,0.7-4.6c0.9-2.3,4-3.7,6.3-3.2c3.2,0.8,2.3,6.2,2,8.7  c-0.1,1.2-1,2-1.7,3c-1.1,1.6-1.2,4.3-1.4,6.3c0,0.2,0,0.5-0.2,0.6c-0.2,0.2-0.4,0.3-0.7,0.3c-1.3,0.3-2.6,0.6-4,0.6  c-1.8,0-4.5-0.6-3.7-2.9C17.4,19.8,18.1,18.2,18.6,16.6z"></path>
<path class="st0" d="M27.5,0.9c-1-0.1-2,0.3-2.7,0.9c-0.3,0.3-0.6,0.6-1,0.8c-0.2,0.1-0.4,0.1-0.6,0.1c-1.9,0.3-3.6,1.5-4.7,3.1  c-0.2,0.4-0.4,0.8-0.5,1.2c0,0.3,0,0.7,0.1,1c0.1,0.8,0.3,1.6,0.4,2.3c0.1,0.3,0.2,0.7,0.2,1.1c0,0.3,0,0.6,0.1,0.9  c0.4,1.2,1.5,0.6,2-0.1c0.4-0.6,0.6-1.3,0.9-2c0.3-0.9,0.8-1.8,1.5-2.3c0.7-0.5,1.6-0.7,2.5-0.9c1-0.2,2.3-0.3,3-1  c0.8-0.8,1.4-1.9,1.3-3c0-0.3-0.1-0.6-0.2-0.8c-0.2-0.3-0.4-0.5-0.7-0.7C28.7,1.1,28.1,0.9,27.5,0.9z"></path>
<path class="st3" d="M22.8,9.8c-0.4-0.7-1.2-1-1.9-0.6c-0.8,0.4-1.2,1.5-1.1,2.4c0.1,0.8,0.9,1.3,1.6,0.9c0.3-0.1,0.6-0.3,0.8-0.5  C22.8,11.4,23.2,10.5,22.8,9.8z"></path>
<path class="st0" d="M21.5,10.7c-0.1-0.4-0.6-0.2-0.6,0.2c0,0.3,0,0.6,0.3,0.8c0.1,0.1,0.3,0,0.4-0.1C21.7,11.3,21.6,11,21.5,10.7z"></path>
<path class="st0" d="M21.3,53.9c-0.1,0.2-0.1,0.5,0,0.8c0.1,0.4,0.5,0.7,0.8,0.9c0.1,0,0.2,0.1,0.3,0.1c0.2,0,0.5-0.1,0.7-0.2"></path>
<path class="st0" d="M10.3,33.2c-0.1,0.6-0.2,1.3-0.1,2.1c0.1,2.8,0.8,5.5,1.4,8.2c1.5-1.5,3.6-2.1,5.6-2.8c2.1-0.7,4.3-1.3,6.4-2  c0.6-0.2,1.3-0.5,1.5-1.1c0.1-0.2,0-0.4,0-0.7c-0.4-4-3.4-11.3-8.5-10.4c-1.6,0.3-2.9,1.3-4,2.5C11.3,30.4,10.6,31.7,10.3,33.2z"></path>
<path class="st3" d="M20.6,27.8c-0.1-0.1-0.3,0.1-0.2,0.2c1.2,1.3,2.2,2.6,3,4.2c0.8,1.8,1.2,3.7,2,5.5c0.1,0.2,0.3,0.1,0.2-0.1  C25,34.2,23.5,30,20.6,27.8z"></path>
<path class="st0" d="M24.2,15c0.1,0.1,0.2,0.4,0.2,0.5c0.1,0.3,0.2,0.6,0.4,0.9c0.4,1.2,0.9,2.4,0.9,3.6c0-0.9,0.5-1.6,0.8-2.4  c0.3-0.8,0.8-1.5,1.2-2.3c0.2-0.3,0.4-0.9-0.2-0.5c-0.3,0.2-0.7,0.4-1,0.4C25.6,15.3,24.9,15.1,24.2,15C24.1,15,24.2,15,24.2,15z"></path>
<path class="st0" d="M25.5,11.7c0,0.1,0,0.3,0.1,0.4c0.1,0.2,0.3,0.4,0.5,0.6c0.2,0.1,0.5,0.2,0.8,0.1c0.3-0.1,0.5-0.4,0.7-0.7  c0-0.1,0-0.2,0-0.2"></path>
<path class="st0" d="M247.5,21.6c0.2,0,0.4,0.1,0.5,0.2c0.1,0.2,0.1,0.4,0,0.5c-0.1,0.1-0.2,0.2-0.4,0.2c0,0,0,0,0,0"></path>
<path class="st0" d="M239.9,22.7c0,0.1,0,0.3,0.1,0.4c0.1,0.2,0.3,0.4,0.6,0.5c0.3,0.1,0.6,0.1,0.9,0c0.3-0.1,0.5-0.3,0.6-0.6  c0,0,0,0,0,0"></path>
</svg>